<?xml version="1.0" standalone="no"?>
<!DOCTYPE svg PUBLIC "-//W3C//DTD SVG 20010904//EN"
 "http://www.w3.org/TR/2001/REC-SVG-20010904/DTD/svg10.dtd">
<svg version="1.0" xmlns="http://www.w3.org/2000/svg"
 width="512.000000pt" height="512.000000pt" viewBox="0 0 512.000000 512.000000"
 preserveAspectRatio="xMidYMid meet">
<metadata>
Created by potrace 1.14, written by Peter Selinger 2001-2017
</metadata>
<g transform="translate(0.000000,512.000000) scale(0.100000,-0.100000)"
fill="#000000" stroke="none">
<path d="M1339 5041 c-138 -15 -295 -134 -365 -277 l-39 -78 -5 -310 -5 -311
-220 -6 c-245 -6 -290 -14 -409 -76 -87 -46 -191 -147 -228 -223 -67 -136 -62
-17 -66 -1680 -2 -1334 -1 -1514 13 -1585 55 -282 225 -452 485 -484 57 -8
733 -11 2065 -11 1618 0 1996 3 2070 14 254 38 419 207 470 480 14 72 15 267
13 1587 -3 1404 -4 1508 -21 1564 -59 201 -209 341 -424 395 -64 16 -112 20
-275 20 l-198 0 0 243 c0 337 -17 427 -106 543 -81 107 -200 179 -322 195 -74
9 -2344 10 -2433 0z m2402 -440 c24 -19 24 -20 27 -280 l3 -261 -1208 2 -1208
3 -3 253 -2 253 24 24 25 25 1159 0 c1127 0 1160 -1 1183 -19z m-2248 -1354
c16 -10 37 -32 47 -50 18 -29 20 -52 20 -259 l0 -228 -65 0 -64 0 -3 138 -3
137 -139 3 c-105 2 -141 -1 -148 -10 -4 -7 -8 -70 -8 -140 l0 -128 -65 0 -65
0 0 225 c0 238 3 258 48 298 34 31 72 36 247 34 146 -2 175 -5 198 -20z m2564
-3 c58 -43 63 -67 63 -314 l0 -225 -65 3 -64 4 -3 136 -3 137 -139 3 c-105 2
-141 -1 -148 -10 -4 -7 -8 -70 -8 -140 l0 -126 -65 -4 -65 -3 0 228 c0 240 3
260 48 300 34 31 72 36 249 34 156 -2 174 -4 200 -23z m493 -1394 l0 -140
-1990 0 -1990 0 0 140 0 140 1990 0 1990 0 0 -140z m0 -855 l0 -145 -1990 0
-1990 0 0 145 0 145 1990 0 1990 0 0 -145z"/>
</g>
</svg>
