<?xml version="1.0" standalone="no"?>
<!DOCTYPE svg PUBLIC "-//W3C//DTD SVG 20010904//EN"
 "http://www.w3.org/TR/2001/REC-SVG-20010904/DTD/svg10.dtd">
<svg version="1.0" xmlns="http://www.w3.org/2000/svg"
 width="512.000000pt" height="512.000000pt" viewBox="0 0 512.000000 512.000000"
 preserveAspectRatio="xMidYMid meet">
<metadata>
Created by potrace 1.14, written by Peter Selinger 2001-2017
</metadata>
<g transform="translate(0.000000,512.000000) scale(0.100000,-0.100000)"
fill="#000000" stroke="none">
<path d="M348 5094 c-173 -41 -305 -179 -338 -353 -6 -32 -10 -244 -10 -517
l0 -464 2560 0 2560 0 0 478 c0 520 -3 548 -57 642 -38 64 -103 130 -165 167
-112 67 53 63 -2333 62 -1806 -1 -2169 -3 -2217 -15z m478 -605 c45 -21 84
-81 84 -129 0 -13 -9 -43 -21 -66 -21 -45 -81 -84 -129 -84 -48 0 -108 39
-129 84 -26 53 -26 79 0 132 14 30 32 48 62 63 53 26 80 26 133 0z m604 1 c45
-23 80 -80 80 -130 0 -76 -74 -150 -150 -150 -50 0 -107 35 -130 80 -39 76
-16 156 56 197 49 28 93 29 144 3z"/>
<path d="M2935 3136 c-24 -15 -48 -40 -59 -63 -37 -76 -299 -689 -311 -728 -7
-22 -144 -345 -304 -718 -310 -723 -312 -730 -272 -791 56 -85 180 -89 237 -8
8 11 84 184 170 383 85 200 159 368 163 374 24 29 601 1399 601 1426 0 46 -39
108 -82 130 -50 25 -95 24 -143 -5z"/>
<path d="M3405 2696 c-69 -30 -108 -112 -85 -180 14 -44 44 -70 378 -336 149
-118 271 -217 271 -220 0 -3 -133 -111 -296 -240 -162 -129 -308 -250 -324
-267 -15 -18 -31 -48 -34 -67 -20 -103 89 -199 187 -167 38 13 801 622 832
664 28 39 28 115 0 154 -28 39 -791 650 -828 663 -38 13 -64 12 -101 -4z"/>
<path d="M1595 2688 c-59 -34 -803 -641 -813 -663 -15 -33 -15 -97 0 -130 10
-23 763 -636 816 -664 57 -31 157 1 187 59 18 35 19 99 3 135 -6 15 -150 137
-325 276 -172 138 -313 255 -313 259 0 5 139 119 308 254 169 136 316 260 325
275 21 36 22 102 2 141 -30 59 -134 90 -190 58z"/>
</g>
</svg>
