<?xml version="1.0" standalone="no"?>
<!DOCTYPE svg PUBLIC "-//W3C//DTD SVG 20010904//EN"
 "http://www.w3.org/TR/2001/REC-SVG-20010904/DTD/svg10.dtd">
<svg version="1.0" xmlns="http://www.w3.org/2000/svg"
 width="835.000000pt" height="835.000000pt" viewBox="0 0 835.000000 835.000000"
 preserveAspectRatio="xMidYMid meet">
<metadata>
Created by potrace 1.14, written by Peter Selinger 2001-2017
</metadata>
<g transform="translate(0.000000,835.000000) scale(0.100000,-0.100000)"
fill="#000000" stroke="none">
<path d="M3458 8345 c-2 -2 -36 -6 -77 -9 -41 -4 -84 -9 -95 -11 -12 -2 -41
-7 -66 -10 -49 -6 -82 -11 -108 -19 -9 -3 -33 -7 -52 -10 -19 -3 -75 -17 -125
-31 -49 -15 -98 -28 -108 -30 -38 -8 -257 -100 -337 -142 -80 -43 -219 -128
-230 -142 -3 -4 -18 -15 -35 -25 -16 -11 -37 -25 -45 -33 -8 -7 -37 -32 -64
-56 -125 -107 -227 -222 -321 -362 -74 -110 -170 -285 -157 -285 4 0 2 -4 -3
-8 -24 -16 -124 -314 -141 -417 -1 -5 -3 -12 -4 -15 -3 -9 -8 -34 -15 -74 -4
-21 -9 -48 -11 -60 -3 -11 -7 -39 -10 -61 -2 -22 -6 -53 -9 -70 -25 -175 -25
-460 0 -625 7 -43 25 -141 29 -155 2 -5 6 -23 10 -40 16 -65 70 -231 78 -239
4 -6 8 -18 8 -28 0 -10 4 -18 8 -18 5 0 9 -6 9 -13 0 -15 87 -194 130 -267 14
-25 51 -83 82 -129 31 -47 61 -92 66 -100 6 -9 12 -18 15 -21 3 -3 33 -41 66
-86 69 -90 83 -108 135 -168 105 -120 151 -171 248 -272 120 -124 183 -197
253 -290 57 -76 148 -224 148 -241 0 -7 5 -13 10 -13 6 0 10 -7 10 -15 0 -8 9
-30 20 -50 11 -19 18 -35 15 -35 -2 0 3 -16 11 -35 53 -128 74 -345 45 -475
-18 -79 -63 -210 -73 -210 -4 0 -8 -7 -8 -16 0 -42 -173 -256 -286 -354 -48
-42 -143 -101 -184 -115 -3 -1 -18 -7 -35 -14 -110 -45 -362 -59 -513 -27
-111 23 -265 82 -336 129 -184 119 -228 283 -112 412 40 43 56 69 65 103 13
43 -17 89 -63 97 -110 21 -217 -49 -288 -189 -26 -52 -31 -75 -34 -151 -2 -50
1 -108 7 -130 6 -22 11 -41 10 -42 -3 -8 46 -125 71 -166 15 -26 28 -50 28
-53 0 -5 60 -94 70 -104 3 -3 18 -23 34 -44 45 -60 202 -215 286 -282 81 -64
240 -171 330 -222 96 -54 313 -157 340 -160 3 -1 32 -13 64 -27 72 -32 97 -41
301 -110 133 -44 246 -78 335 -100 8 -2 71 -17 140 -34 69 -17 136 -32 150
-35 14 -2 32 -7 40 -10 8 -3 29 -7 45 -10 17 -3 62 -12 100 -21 39 -9 81 -17
95 -19 14 -2 66 -13 115 -25 50 -11 101 -23 115 -25 14 -3 104 -25 200 -51 96
-25 183 -47 194 -50 10 -2 44 -12 75 -21 31 -9 65 -18 76 -20 11 -2 31 -8 45
-13 21 -8 174 -48 255 -66 52 -11 123 -33 143 -44 12 -6 22 -10 22 -7 0 3 16
-2 35 -10 19 -8 38 -15 42 -15 5 -1 17 -5 28 -10 11 -4 57 -22 103 -39 274
-102 691 -302 920 -442 34 -21 66 -38 71 -38 5 0 11 -3 13 -8 2 -4 64 -45 138
-91 74 -46 151 -94 170 -106 116 -75 270 -160 270 -149 0 3 6 2 13 -3 18 -14
88 -16 122 -3 65 25 92 78 87 175 -3 50 -37 165 -68 229 -13 27 -24 53 -24 57
0 26 -284 487 -320 519 -3 3 -30 39 -62 80 -56 75 -63 85 -126 163 -30 37 -99
119 -127 151 -5 6 -44 49 -85 96 -100 113 -194 211 -446 464 -315 316 -375
407 -402 611 -13 96 -5 444 12 545 3 14 7 43 11 64 12 86 53 208 87 266 42 69
144 150 208 165 205 46 214 55 148 152 -33 48 -296 314 -602 608 -114 110
-243 234 -285 275 -43 41 -158 152 -256 245 -450 430 -481 456 -617 506 -46
17 -90 37 -99 45 -8 8 -20 14 -25 14 -20 0 -81 66 -102 111 -12 25 -22 63 -22
85 0 82 73 185 195 279 74 57 180 169 305 325 47 58 87 107 90 110 3 3 35 41
70 85 62 78 96 117 133 156 9 11 17 21 17 23 0 4 30 40 110 130 25 29 70 80
100 115 30 36 69 80 87 100 33 38 98 116 123 147 8 11 42 53 75 94 33 41 64
81 70 88 5 7 19 23 30 35 11 12 38 45 60 72 21 28 42 52 45 55 3 3 32 36 65
74 33 38 69 79 80 91 40 43 120 155 111 155 -2 0 -1 14 4 31 18 61 -78 125
-360 236 -69 28 -134 54 -145 58 -11 5 -22 9 -25 10 -3 1 -12 5 -20 8 -74 31
-403 146 -440 153 -14 3 -47 11 -75 19 -52 14 -132 30 -200 41 -42 6 -511 14
-517 9z m-888 -6534 c0 -3 23 -7 50 -8 41 -1 141 -19 285 -49 11 -2 33 -7 49
-10 16 -2 32 -6 35 -8 3 -2 28 -7 55 -10 27 -4 53 -9 58 -12 4 -3 22 -7 40 -9
18 -3 44 -7 58 -10 14 -4 39 -8 55 -10 26 -3 253 -49 295 -60 26 -7 154 -36
180 -41 14 -2 32 -7 40 -10 8 -3 24 -8 36 -10 11 -2 65 -15 120 -30 115 -30
174 -44 192 -46 6 -1 12 -5 12 -10 0 -5 4 -7 8 -4 4 2 48 -7 97 -21 50 -14 95
-26 100 -27 19 -5 100 -28 120 -35 11 -4 52 -18 90 -30 61 -20 192 -72 290
-116 17 -7 68 -29 115 -48 47 -19 111 -47 142 -61 31 -14 59 -26 63 -26 15 0
376 -186 502 -258 149 -86 326 -200 331 -214 2 -4 8 -8 14 -8 6 0 55 -36 110
-80 56 -44 97 -80 93 -80 -4 0 4 -9 18 -20 61 -48 94 -131 59 -149 -46 -24
-158 31 -332 163 -66 50 -344 236 -353 236 -3 0 -40 21 -83 46 -92 54 -500
254 -519 254 -2 0 -29 11 -59 25 -30 14 -58 25 -63 25 -4 0 -20 6 -34 14 -15
7 -51 22 -80 31 -30 10 -58 20 -64 24 -5 3 -12 6 -15 6 -3 1 -99 32 -215 69
-388 125 -490 157 -506 161 -9 2 -47 12 -85 23 -38 11 -98 27 -134 36 -105 25
-293 67 -320 72 -14 2 -36 7 -50 11 -14 3 -32 7 -39 9 -8 2 -47 10 -85 19 -91
21 -239 54 -266 60 -3 0 -23 5 -45 9 -22 5 -47 10 -55 12 -8 1 -26 5 -40 8
-14 3 -34 8 -45 11 -11 2 -31 6 -45 10 -14 3 -34 7 -45 9 -77 15 -275 76 -293
90 -50 41 -54 58 -20 73 24 10 178 14 178 4z"/>
<path d="M5925 8261 c-37 -22 -125 -108 -180 -175 -22 -27 -46 -55 -52 -62 -7
-7 -13 -15 -13 -18 0 -6 -25 -37 -67 -84 -13 -14 -23 -28 -23 -31 0 -3 -13
-20 -28 -38 -15 -17 -52 -63 -82 -102 -30 -39 -58 -71 -62 -71 -5 0 -8 -4 -8
-10 0 -7 -239 -311 -260 -330 -3 -3 -32 -39 -65 -80 -75 -95 -88 -110 -101
-124 -5 -6 -39 -47 -75 -92 -60 -76 -254 -316 -290 -359 -115 -138 -176 -215
-234 -290 -38 -49 -72 -92 -75 -95 -3 -3 -19 -23 -35 -45 -17 -22 -32 -42 -35
-45 -3 -3 -32 -36 -64 -75 -76 -88 -287 -300 -346 -345 -88 -69 -110 -95 -110
-134 0 -31 5 -38 38 -55 20 -10 48 -22 62 -26 60 -18 128 -58 186 -110 7 -5
29 -24 50 -42 22 -17 55 -46 75 -65 20 -18 72 -64 115 -103 43 -38 114 -104
158 -146 45 -42 101 -95 126 -118 195 -183 424 -406 791 -771 235 -234 438
-434 451 -445 45 -37 108 -63 149 -60 77 6 143 65 394 349 11 13 33 38 49 57
30 35 269 301 296 330 8 8 53 58 100 109 138 151 310 335 437 466 152 158 184
202 170 238 -7 19 -48 45 -78 51 -137 28 -286 34 -1254 50 -268 4 -403 7 -830
20 -115 4 -296 11 -455 19 -41 2 -111 7 -155 11 -44 4 -98 9 -120 11 -22 1
-58 5 -80 9 -22 4 -46 7 -52 8 -7 0 -13 4 -13 9 0 4 -6 8 -13 8 -18 0 -125 76
-159 113 -34 37 -48 76 -37 104 9 24 120 137 243 248 42 39 90 81 105 95 15
14 62 57 105 95 43 39 90 81 105 95 111 101 200 182 221 200 49 42 143 126
175 155 17 17 60 55 95 85 35 30 73 64 84 75 12 11 40 36 62 55 86 75 190 167
243 216 31 28 68 62 83 75 14 13 61 56 103 94 43 39 91 81 108 95 16 14 41 35
56 47 14 12 51 42 81 65 125 94 141 143 115 336 -4 33 -9 93 -20 257 -3 44 -8
91 -10 105 -2 14 -7 41 -10 60 -14 82 -33 126 -63 139 -32 15 -42 14 -77 -8z"/>
<path d="M6155 7257 c-16 -6 -36 -16 -43 -24 -7 -7 -16 -13 -20 -13 -9 0 -82
-65 -292 -260 -15 -14 -62 -57 -105 -95 -43 -39 -94 -86 -115 -105 -21 -19
-66 -60 -101 -90 -35 -30 -76 -67 -91 -81 -16 -15 -56 -51 -90 -80 -33 -30
-75 -67 -91 -82 -17 -16 -62 -56 -100 -90 -38 -34 -83 -75 -101 -92 -17 -16
-69 -64 -115 -105 -120 -107 -434 -419 -458 -455 -46 -68 -37 -96 32 -101 55
-3 635 -14 1050 -20 536 -6 990 -13 990 -14 0 -11 589 -17 690 -7 149 15 147
14 139 65 -5 34 -69 176 -111 247 -37 62 -137 220 -143 225 -3 3 -17 23 -30
45 -13 22 -26 42 -29 45 -4 3 -31 41 -60 85 -30 44 -59 82 -63 83 -4 2 -8 8
-8 13 0 8 -51 80 -70 99 -3 3 -9 13 -15 22 -12 21 -266 375 -280 391 -6 7 -31
41 -55 77 -25 36 -47 67 -50 70 -3 3 -38 50 -77 106 -101 140 -129 161 -188
141z m-127 -489 c43 -33 102 -108 193 -243 30 -44 60 -86 67 -93 6 -7 12 -17
12 -22 0 -5 6 -15 13 -22 6 -7 72 -102 145 -210 142 -211 195 -310 188 -349
-3 -13 -5 -28 -5 -32 -1 -4 -13 -19 -27 -32 -54 -50 -121 -26 -209 74 -16 19
-35 39 -40 45 -54 57 -361 506 -434 636 -50 88 -73 166 -58 195 33 65 107 91
155 53z m-405 -369 c35 -25 93 -82 146 -144 49 -58 121 -161 121 -173 0 -5 7
-15 15 -22 12 -10 91 -157 96 -178 1 -4 3 -11 5 -17 36 -106 -39 -168 -152
-125 -25 10 -154 136 -154 151 0 4 -6 14 -13 21 -30 31 -124 169 -149 218 -6
14 -17 32 -24 40 -18 23 -54 137 -54 171 0 47 46 88 94 84 20 -2 51 -14 69
-26z m-390 -297 c21 0 77 -50 109 -96 45 -64 66 -114 74 -176 6 -43 4 -51 -19
-74 -23 -23 -32 -25 -94 -22 -75 4 -103 16 -142 60 -56 62 -74 107 -75 183 -1
66 1 74 28 102 29 30 68 43 96 30 8 -4 19 -7 23 -7z"/>
</g>
</svg>
